<?xml version="1.0" standalone="no"?>
<!DOCTYPE svg PUBLIC "-//W3C//DTD SVG 1.1//EN" "http://www.w3.org/Graphics/SVG/1.1/DTD/svg11.dtd" >
<svg xmlns="http://www.w3.org/2000/svg" xmlns:xlink="http://www.w3.org/1999/xlink" version="1.1">
<metadata></metadata>
<defs>
<font id="comic_runesregular" horiz-adv-x="223" >
<font-face units-per-em="1000" ascent="995" descent="-5" />
<missing-glyph horiz-adv-x="500" />
<glyph horiz-adv-x="0" />
<glyph horiz-adv-x="333" />
<glyph />
<glyph />
<glyph />
<glyph unicode="&#x9;" />
<glyph unicode="&#xa;" />
<glyph unicode="&#xd;" />
<glyph unicode=" " />
<glyph unicode="!" horiz-adv-x="219" d="M182 32q0 -15 -10.5 -25t-25.5 -10t-26 10t-11 25t11 26t26 11t25.5 -11t10.5 -26zM146 178q-15 0 -26 10.5t-11 25.5v546q0 15 11 25.5t26 10.5t25.5 -10.5t10.5 -25.5v-546q0 -15 -10.5 -25.5t-25.5 -10.5z" />
<glyph unicode="&#x22;" />
<glyph unicode="#" />
<glyph unicode="$" />
<glyph unicode="%" />
<glyph unicode="&#x26;" />
<glyph unicode="'" />
<glyph unicode="(" />
<glyph unicode=")" />
<glyph unicode="*" />
<glyph unicode="+" />
<glyph unicode="," horiz-adv-x="241" d="M30 -149q-10 0 -20 7q-21 20 -4 44l123 153q8 10 20.5 11.5t22.5 -6.5t11.5 -20.5t-6.5 -22.5l-123 -154q-9 -12 -24 -12z" />
<glyph unicode="-" />
<glyph unicode="." horiz-adv-x="239" d="M182 32q0 -15 -10.5 -25t-25.5 -10t-26 10t-11 25t11 26t26 11t25.5 -11t10.5 -26z" />
<glyph unicode="/" />
<glyph unicode="0" horiz-adv-x="440" d="M420 399q0 -16 -8 -27l-154 -200q-13 -16 -32 -16q-17 0 -31 14l-166 200q-9 12 -9 26t9 26l166 199q13 15 31 15q20 0 32 -15l153 -194q9 -11 9 -25v-3zM225 260l107 139l-107 134l-113 -137z" />
<glyph unicode="1" horiz-adv-x="440" d="M365 796q15 0 26 -10.5t11 -25.5v-728q0 -14 -11 -24.5t-26 -10.5q-14 0 -25 10.5t-11 24.5v624l-226 -283q-11 -13 -28 -13q-15 0 -26 10.5t-11 25.5q0 12 8 23l291 363q11 14 28 14z" />
<glyph unicode="2" horiz-adv-x="440" d="M135 69h230q15 0 26 -11t11 -26q0 -14 -11 -24.5t-26 -10.5h-290q-15 1 -26 10.5t-11 24.5q0 8 5 18l279 524l-102 127l-117 -146q-12 -14 -28 -14q-15 0 -26 11t-11 26q0 12 8 23l146 181q11 14 28 14q18 0 29 -14l145 -181q8 -11 8 -24q0 -9 -5 -17z" />
<glyph unicode="3" horiz-adv-x="440" d="M402 396q0 -12 -8 -23l-291 -363q-10 -13 -28 -13q-15 0 -26 10.5t-11 24.5q0 13 8 23l244 305h-215q-15 0 -26 10.5t-11 25.5q0 12 8 23l244 304h-215q-15 0 -26 11t-11 26q0 14 11 25t26 11h290q15 0 26 -10.5t11 -25.5q0 -13 -8 -23l-244 -305h215q15 0 26 -10.5 t11 -25.5z" />
<glyph unicode="4" horiz-adv-x="440" d="M365 796q15 0 26 -10.5t11 -25.5v-728q0 -14 -11 -24.5t-26 -10.5q-14 0 -25 10.5t-11 24.5v328h-254q-15 0 -26 10.5t-11 25.5q0 12 8 23l291 363q11 14 28 14zM150 432h179v224z" />
<glyph unicode="5" horiz-adv-x="440" d="M111 614h255q14 0 25 -10.5t11 -25.5v-364q0 -12 -8 -23l-145 -181q-10 -13 -29 -13q-18 0 -28 13l-146 181q-8 11 -8 23q0 15 11 26t25 11q17 0 29 -14l117 -146l109 136v314h-254q-15 0 -26 11t-11 26v182q0 15 10.5 25t25.5 11q43 1 92 1t108 -0.5t91 -0.5 q15 0 26 -11t11 -25q0 -15 -11 -26t-26 -11h-254v-109z" />
<glyph unicode="6" horiz-adv-x="440" d="M402 396q0 -8 -3 -14l-145 -363q-9 -22 -34 -22t-34 22l-145 363q-3 6 -3 14t3 14l146 363q8 23 33 23q15 0 26 -11t11 -25t-129 -328h237q15 0 26 -10.5t11 -25.5zM220 130l92 230h-184z" />
<glyph unicode="7" horiz-adv-x="440" d="M402 760q0 -8 -3 -15l-291 -726q-8 -22 -33 -22q-15 0 -26 10.5t-11 24.5q0 6 25.5 72t65 165t75.5 188.5t70.5 174t37.5 91.5h-237q-15 0 -26 11t-11 26q0 14 11 25t26 11h290q15 -1 26 -11t11 -25z" />
<glyph unicode="8" horiz-adv-x="440" d="M220 701l-99 -123l99 -124l99 124zM220 338l-99 -124l99 -123l99 123zM220 -3q-18 0 -28 13l-146 181q-17 24 0 46l127 159l-127 159q-17 22 0 46l146 181q11 14 28 14t28 -14l146 -181q17 -24 0 -46l-127 -159l127 -159q17 -22 0 -46l-146 -181q-10 -13 -28 -13z" />
<glyph unicode="9" horiz-adv-x="440" d="M402 396q0 -6 -3 -14l-145 -363q-9 -22 -34 -22q-15 0 -25.5 10.5t-10.5 24.5q0 16 128 328h-237q-15 0 -26 10.5t-11 25.5q0 8 3 14l145 363q9 23 33 23q25 0 35 -23l145 -363q3 -8 3 -14zM220 662l-92 -230h184z" />
<glyph unicode=":" />
<glyph unicode=";" />
<glyph unicode="&#x3c;" />
<glyph unicode="=" />
<glyph unicode="&#x3e;" />
<glyph unicode="?" horiz-adv-x="388" d="M364 578q0 -14 -9 -23l-137 -172v-169q0 -15 -10.5 -25.5t-25.5 -10.5t-26 10.5t-11 25.5v182q0 12 8 23l128 159l-99 123l-117 -146q-11 -14 -29 -14q-14 0 -25 11t-11 26q0 12 8 23l146 181q11 14 28 14q18 0 29 -14l144 -181q9 -11 9 -23zM146 32q0 -14 10.5 -24.5 t25.5 -10.5t26 10.5t11 24.5q0 15 -11 26t-26 11t-25.5 -11t-10.5 -26z" />
<glyph unicode="@" horiz-adv-x="395" d="M364 578v-364q0 -12 -8 -23l-145 -181q-10 -13 -29 -13q-18 0 -28 13l-146 181q-8 11 -8 23q0 13 8 23l145 182q11 13 29 13q17 0 28 -13l81 -101v247l-109 136l-109 -136v-169q0 -15 -11 -25.5t-26 -10.5q-14 0 -25 10.5t-11 25.5v182q0 12 8 23l145 181q11 14 29 14 q17 0 28 -14l146 -181q8 -11 8 -23zM182 91l99 123l-99 124l-99 -124z" />
<glyph unicode="A" horiz-adv-x="431" d="M118 676v-134l217 -217v134zM107 789l290 -290q11 -9 11 -25v-438q0 -15 -10.5 -25.5t-25.5 -10.5q-16 0 -26.5 10.5t-10.5 25.5v186l-217 217v-403q0 -15 -10.5 -25.5t-25.5 -10.5t-26 10.5t-11 25.5v728q0 25 23 33q22 10 39 -8z" />
<glyph unicode="B" horiz-adv-x="433" d="M303 216l-184 115v-230zM304 577l-185 121v-237zM407 216q0 -20 -17 -30l-288 -181q-6 -3 -19 -5q-15 -1 -25.5 10t-10.5 26q-2 0 -1 180l1 180v368q0 15 10.5 25.5t25.5 10.5q11 0 19 -6l288 -187q17 -10 17 -30t-17 -31l-239 -150l239 -149q17 -11 17 -31z" />
<glyph unicode="C" horiz-adv-x="426" d="M401 741l-273 -341l273 -341q8 -10 8 -23q0 -14 -11 -25t-25 -11q-18 0 -29 14l-290 363q-9 9 -9 23t9 23l290 363q11 14 29 14q14 0 25 -11t11 -25q0 -13 -8 -23z" />
<glyph unicode="D" horiz-adv-x="419" d="M326 396l-208 260v-520zM82 -3q-4 0 -12 2q-25 7 -25 34v727q0 26 25 34q24 9 40 -12l291 -363q19 -22 0 -46l-291 -363q-10 -13 -28 -13z" />
<glyph unicode="E" horiz-adv-x="430" d="M373 364h-216l244 -305q8 -10 8 -23q0 -14 -11 -25t-25 -11q-18 0 -29 14l-290 363q-9 9 -9 23t9 23l290 363q11 14 29 14q14 0 25 -11t11 -25q0 -13 -8 -23l-244 -305h216q14 0 25 -10.5t11 -25.5t-11 -25.5t-25 -10.5z" />
<glyph unicode="F" horiz-adv-x="417" d="M118 676v-134l279 -279q11 -11 11 -26t-10.5 -25.5t-25.5 -10.5q-16 0 -26 10l-228 228v-403q0 -15 -10.5 -25.5t-25.5 -10.5t-26 10.5t-11 25.5v728q0 15 11 25.5t26 10.5q16 0 25 -11l290 -290q11 -9 11 -25q0 -15 -10.5 -26t-25.5 -11t-26 11z" />
<glyph unicode="G" horiz-adv-x="442" d="M409 400v-364q0 -15 -10.5 -25t-25.5 -11q-18 0 -29 14l-290 363q-9 9 -9 23t9 23l290 363q11 14 29 14q14 0 25 -11t11 -25q0 -13 -8 -23l-273 -341l208 -260v260q0 15 11 25.5t26 10.5q14 0 25 -10.5t11 -25.5z" />
<glyph unicode="H" horiz-adv-x="448" d="M118 545v-109h218v109h-218zM373 800q15 0 25.5 -10.5t10.5 -25.5v-728q0 -15 -10.5 -25.5t-25.5 -10.5q-16 0 -26.5 10.5t-10.5 25.5v328h-218v-328q0 -15 -10.5 -25.5t-25.5 -10.5t-26 10.5t-11 25.5v728q0 15 11 25.5t26 10.5t25.5 -10.5t10.5 -25.5v-146h218v146 q0 15 10.5 25.5t26.5 10.5z" />
<glyph unicode="I" horiz-adv-x="433" d="M373 255q15 0 25.5 -11t10.5 -26q0 -12 -8 -23l-145 -181q-11 -14 -29 -14q-15 1 -25.5 11t-10.5 25v624l-81 -101q-11 -14 -28 -14q-15 0 -26 11t-11 26q0 12 8 23l146 181q11 14 29 14q14 0 25 -11t11 -25v-624l80 101q12 14 29 14z" />
<glyph unicode="J" horiz-adv-x="448" d="M409 764v-728q0 -15 -10.5 -25t-25.5 -11q-18 0 -29 14l-291 363q-8 11 -8 23q0 15 11 25.5t26 10.5q17 0 28 -13l226 -283v624q0 15 11 25.5t26 10.5t25.5 -10.5t10.5 -25.5z" />
<glyph unicode="K" horiz-adv-x="426" d="M401 741l-273 -341l273 -341q10 -12 8 -26.5t-14 -24.5q-10 -8 -22 -8q-18 0 -29 14l-226 282v-260q0 -15 -10.5 -25.5t-25.5 -10.5t-26 10.5t-11 25.5v728q0 15 11 25.5t26 10.5t25.5 -10.5t10.5 -25.5v-260l226 282q10 12 25 14t26 -8q12 -10 14 -24.5t-8 -26.5z" />
<glyph unicode="L" horiz-adv-x="407" d="M373 436q15 0 25.5 -10.5t10.5 -25.5q0 -12 -8 -23l-291 -363q-11 -14 -28 -14q-15 1 -26 11t-11 25v728q0 15 11 25.5t26 10.5t25.5 -10.5t10.5 -25.5v-624l226 283q11 13 29 13z" />
<glyph unicode="M" horiz-adv-x="448" d="M336 660l-62 -78l62 -78v156zM118 660v-156l63 78zM373 800q14 0 25 -10.5t11 -25.5v-728q0 -15 -10.5 -25.5t-25.5 -10.5t-26 10.5t-11 25.5v351l-109 137l-109 -137v-351q0 -15 -10.5 -25.5t-25.5 -10.5t-26 10.5t-11 25.5v728q0 15 11 25.5t26 10.5q17 0 28 -14 l117 -146l117 146q11 14 29 14z" />
<glyph unicode="N" horiz-adv-x="445" d="M334 384l-216 276v-250l216 -271v245zM406 758v-722q0 -15 -10.5 -25t-25.5 -11q-17 0 -28 14l-224 280v-258q0 -15 -11 -25.5t-26 -10.5q-14 0 -25 10.5t-11 25.5v727q0 15 10.5 26t25.5 11q18 0 29 -14l224 -285v257q0 15 10.5 25.5t25.5 10.5t25.5 -10.5t10.5 -25.5z " />
<glyph unicode="O" horiz-adv-x="433" d="M121 400l106 -266l106 266l-106 266zM409 400q0 -7 -3 -13l-145 -364q-8 -23 -33 -23q-26 0 -34 23l-146 363q-3 8 -3 14q0 7 3 14l145 363q10 23 34 23t34 -23l145 -363q3 -7 3 -14z" />
<glyph unicode="P" horiz-adv-x="416" d="M303 579l-185 119v-235zM407 579q0 -21 -18 -32l-271 -170v-341q0 -15 -11 -25.5t-26 -10.5q-14 0 -25 10.5t-11 25.5v729q0 14 11 24.5t26 10.5q10 0 19 -6l289 -185q17 -12 17 -30z" />
<glyph unicode="Q" horiz-adv-x="437" d="M121 400l106 -266l34 84q-2 5 -11.5 27t-18.5 43.5t-18.5 46t-15.5 42t-6 23.5q0 15 10.5 25.5t25.5 10.5q24 0 34 -22l39 -98l33 84l-106 266zM406 386l-67 -168q2 -5 11.5 -27t18.5 -43.5t18.5 -46t15.5 -42t6 -23.5q0 -15 -10.5 -25.5t-25.5 -10.5q-26 0 -34 23 l-39 97l-39 -97q-10 -23 -34 -23t-34 23l-145 363q-3 8 -3 14q0 7 3 14l146 363q8 23 33 23q26 0 34 -23l145 -364q3 -6 3 -13q0 -6 -3 -14z" />
<glyph unicode="R" horiz-adv-x="424" d="M303 579l-185 119v-235zM389 547l-254 -159l264 -329q8 -11 8 -23q0 -15 -11 -25.5t-25 -10.5q-18 0 -29 14l-224 281v-259q0 -15 -11 -25.5t-26 -10.5q-14 0 -25 10.5t-11 25.5v729q0 14 11 24.5t25 10.5q11 0 20 -6l289 -185q17 -12 17 -30q0 -21 -18 -32z" />
<glyph unicode="S" horiz-adv-x="423" d="M407 398q0 -12 -8 -23l-289 -361q-11 -14 -29 -14q-14 0 -25 10.5t-11 25.5q0 12 8 23l243 303h-212q-16 0 -27.5 10t-11.5 26q0 12 8 23l290 365q9 14 28 14q15 0 25.5 -10.5t10.5 -25.5q0 -12 -8 -23l-243 -307h215q15 0 25.5 -10.5t10.5 -25.5z" />
<glyph unicode="T" horiz-adv-x="420" d="M227 800q18 0 29 -14l145 -181q8 -11 8 -23q0 -15 -10.5 -26t-25.5 -11q-17 0 -29 14l-80 101v-624q0 -15 -10.5 -25.5t-25.5 -10.5t-26 10.5t-11 25.5v624l-81 -101q-12 -14 -28 -14q-15 0 -26 11t-11 26q0 12 8 23l146 181q11 14 28 14z" />
<glyph unicode="U" horiz-adv-x="441" d="M409 764v-546q0 -20 -18 -31l-290 -181q-6 -4 -19 -6q-15 -1 -26 10.5t-11 25.5v728q0 15 11 25.5t26 10.5t25.5 -10.5t10.5 -25.5v-662l218 136v526q0 15 11 25.5t26 10.5t25.5 -10.5t10.5 -25.5z" />
<glyph unicode="V" horiz-adv-x="439" d="M409 764q0 -5 -1 -8l-145 -726q-3 -13 -13 -21.5t-23 -8.5t-23 8.5t-13 21.5l-145 726q0 2 -0.5 4t-0.5 4q0 15 11 25.5t26 10.5q13 0 23 -8t12 -21l110 -549l110 549q2 13 12 21t24 8q15 0 25.5 -10.5t10.5 -25.5z" />
<glyph unicode="W" horiz-adv-x="448" d="M336 205l-109 137l-109 -137v-65l81 101q12 14 28 14q17 0 29 -14l80 -101v65zM409 764v-728q0 -15 -10.5 -25t-25.5 -11q-18 0 -29 14l-117 146l-117 -146q-11 -14 -28 -14q-15 1 -26 11t-11 25v728q0 14 11 25t26 11q14 0 25 -11t11 -25v-442l81 101q11 13 28 13 q18 0 29 -13l80 -101v442q0 14 11 25t26 11q14 0 25 -11t11 -25z" />
<glyph unicode="X" horiz-adv-x="432" d="M266 400q3 -8 20.5 -50.5t37 -89.5t39.5 -97t33 -85.5t13 -41.5q0 -15 -10.5 -25.5t-25.5 -10.5q-26 0 -34 23l-112 279l-112 -279q-8 -23 -33 -23q-15 0 -26 10.5t-11 25.5q0 6 13 41.5t33 85.5t39.5 97t37 89.5t20.5 50.5q-3 8 -20.5 50.5t-37 89.5t-39.5 97t-33 85.5 t-13 41.5q0 15 11 25.5t26 10.5q25 0 33 -23l112 -279l112 279q8 23 34 23q15 0 25.5 -10.5t10.5 -25.5q0 -6 -13 -41.5t-33 -85.5t-39.5 -97t-37 -89.5t-20.5 -50.5z" />
<glyph unicode="Y" horiz-adv-x="426" d="M386 797q14 -5 20 -19t0 -28l-142 -357v-357q0 -15 -11 -25.5t-26 -10.5t-25.5 10.5t-10.5 25.5v357l-143 357q-6 14 0 28t20 19q14 6 28 0t19 -20l76 -188v175q0 15 10.5 25.5t25.5 10.5t26 -10.5t11 -25.5v-175l75 188q5 14 19 20t28 0z" />
<glyph unicode="Z" horiz-adv-x="424" d="M409 764q0 -8 -3 -15l-271 -676h238q15 0 25.5 -11t10.5 -26t-10.5 -25.5t-25.5 -10.5h-291q-37 4 -37 36q0 8 3 15l271 676h-237q-15 0 -26 11t-11 26t11 25.5t26 10.5q32 0 91 0.5t108 0.5t92 -1q15 -1 25.5 -11t10.5 -25z" />
<glyph unicode="[" />
<glyph unicode="\" />
<glyph unicode="]" />
<glyph unicode="^" />
<glyph unicode="_" />
<glyph unicode="`" />
<glyph unicode="a" horiz-adv-x="431" d="M118 676v-134l217 -217v134zM107 789l290 -290q11 -9 11 -25v-438q0 -15 -10.5 -25.5t-25.5 -10.5q-16 0 -26.5 10.5t-10.5 25.5v186l-217 217v-403q0 -15 -10.5 -25.5t-25.5 -10.5t-26 10.5t-11 25.5v728q0 25 23 33q22 10 39 -8z" />
<glyph unicode="b" horiz-adv-x="433" d="M303 216l-184 115v-230zM304 577l-185 121v-237zM407 216q0 -20 -17 -30l-288 -181q-6 -3 -19 -5q-15 -1 -25.5 10t-10.5 26q-2 0 -1 180l1 180v368q0 15 10.5 25.5t25.5 10.5q11 0 19 -6l288 -187q17 -10 17 -30t-17 -31l-239 -150l239 -149q17 -11 17 -31z" />
<glyph unicode="c" horiz-adv-x="426" d="M401 741l-273 -341l273 -341q8 -10 8 -23q0 -14 -11 -25t-25 -11q-18 0 -29 14l-290 363q-9 9 -9 23t9 23l290 363q11 14 29 14q14 0 25 -11t11 -25q0 -13 -8 -23z" />
<glyph unicode="d" horiz-adv-x="419" d="M326 396l-208 260v-520zM82 -3q-4 0 -12 2q-25 7 -25 34v727q0 26 25 34q24 9 40 -12l291 -363q19 -22 0 -46l-291 -363q-10 -13 -28 -13z" />
<glyph unicode="e" horiz-adv-x="430" d="M373 364h-216l244 -305q8 -10 8 -23q0 -14 -11 -25t-25 -11q-18 0 -29 14l-290 363q-9 9 -9 23t9 23l290 363q11 14 29 14q14 0 25 -11t11 -25q0 -13 -8 -23l-244 -305h216q14 0 25 -10.5t11 -25.5t-11 -25.5t-25 -10.5z" />
<glyph unicode="f" horiz-adv-x="417" d="M118 676v-134l279 -279q11 -11 11 -26t-10.5 -25.5t-25.5 -10.5q-16 0 -26 10l-228 228v-403q0 -15 -10.5 -25.5t-25.5 -10.5t-26 10.5t-11 25.5v728q0 15 11 25.5t26 10.5q16 0 25 -11l290 -290q11 -9 11 -25q0 -15 -10.5 -26t-25.5 -11t-26 11z" />
<glyph unicode="g" horiz-adv-x="442" d="M409 400v-364q0 -15 -10.5 -25t-25.5 -11q-18 0 -29 14l-290 363q-9 9 -9 23t9 23l290 363q11 14 29 14q14 0 25 -11t11 -25q0 -13 -8 -23l-273 -341l208 -260v260q0 15 11 25.5t26 10.5q14 0 25 -10.5t11 -25.5z" />
<glyph unicode="h" horiz-adv-x="448" d="M118 545v-109h218v109h-218zM373 800q15 0 25.5 -10.5t10.5 -25.5v-728q0 -15 -10.5 -25.5t-25.5 -10.5q-16 0 -26.5 10.5t-10.5 25.5v328h-218v-328q0 -15 -10.5 -25.5t-25.5 -10.5t-26 10.5t-11 25.5v728q0 15 11 25.5t26 10.5t25.5 -10.5t10.5 -25.5v-146h218v146 q0 15 10.5 25.5t26.5 10.5z" />
<glyph unicode="i" horiz-adv-x="433" d="M373 255q15 0 25.5 -11t10.5 -26q0 -12 -8 -23l-145 -181q-11 -14 -29 -14q-15 1 -25.5 11t-10.5 25v624l-81 -101q-11 -14 -28 -14q-15 0 -26 11t-11 26q0 12 8 23l146 181q11 14 29 14q14 0 25 -11t11 -25v-624l80 101q12 14 29 14z" />
<glyph unicode="j" horiz-adv-x="448" d="M409 764v-728q0 -15 -10.5 -25t-25.5 -11q-18 0 -29 14l-291 363q-8 11 -8 23q0 15 11 25.5t26 10.5q17 0 28 -13l226 -283v624q0 15 11 25.5t26 10.5t25.5 -10.5t10.5 -25.5z" />
<glyph unicode="k" horiz-adv-x="426" d="M401 741l-273 -341l273 -341q10 -12 8 -26.5t-14 -24.5q-10 -8 -22 -8q-18 0 -29 14l-226 282v-260q0 -15 -10.5 -25.5t-25.5 -10.5t-26 10.5t-11 25.5v728q0 15 11 25.5t26 10.5t25.5 -10.5t10.5 -25.5v-260l226 282q10 12 25 14t26 -8q12 -10 14 -24.5t-8 -26.5z" />
<glyph unicode="l" horiz-adv-x="407" d="M373 436q15 0 25.5 -10.5t10.5 -25.5q0 -12 -8 -23l-291 -363q-11 -14 -28 -14q-15 1 -26 11t-11 25v728q0 15 11 25.5t26 10.5t25.5 -10.5t10.5 -25.5v-624l226 283q11 13 29 13z" />
<glyph unicode="m" horiz-adv-x="448" d="M336 660l-62 -78l62 -78v156zM118 660v-156l63 78zM373 800q14 0 25 -10.5t11 -25.5v-728q0 -15 -10.5 -25.5t-25.5 -10.5t-26 10.5t-11 25.5v351l-109 137l-109 -137v-351q0 -15 -10.5 -25.5t-25.5 -10.5t-26 10.5t-11 25.5v728q0 15 11 25.5t26 10.5q17 0 28 -14 l117 -146l117 146q11 14 29 14z" />
<glyph unicode="n" horiz-adv-x="445" d="M334 384l-216 276v-250l216 -271v245zM406 758v-722q0 -15 -10.5 -25t-25.5 -11q-17 0 -28 14l-224 280v-258q0 -15 -11 -25.5t-26 -10.5q-14 0 -25 10.5t-11 25.5v727q0 15 10.5 26t25.5 11q18 0 29 -14l224 -285v257q0 15 10.5 25.5t25.5 10.5t25.5 -10.5t10.5 -25.5z " />
<glyph unicode="o" horiz-adv-x="433" d="M121 400l106 -266l106 266l-106 266zM409 400q0 -7 -3 -13l-145 -364q-8 -23 -33 -23q-26 0 -34 23l-146 363q-3 8 -3 14q0 7 3 14l145 363q10 23 34 23t34 -23l145 -363q3 -7 3 -14z" />
<glyph unicode="p" horiz-adv-x="416" d="M303 579l-185 119v-235zM407 579q0 -21 -18 -32l-271 -170v-341q0 -15 -11 -25.5t-26 -10.5q-14 0 -25 10.5t-11 25.5v729q0 14 11 24.5t26 10.5q10 0 19 -6l289 -185q17 -12 17 -30z" />
<glyph unicode="q" horiz-adv-x="437" d="M121 400l106 -266l34 84q-2 5 -11.5 27t-18.5 43.5t-18.5 46t-15.5 42t-6 23.5q0 15 10.5 25.5t25.5 10.5q24 0 34 -22l39 -98l33 84l-106 266zM406 386l-67 -168q2 -5 11.5 -27t18.5 -43.5t18.5 -46t15.5 -42t6 -23.5q0 -15 -10.5 -25.5t-25.5 -10.5q-26 0 -34 23 l-39 97l-39 -97q-10 -23 -34 -23t-34 23l-145 363q-3 8 -3 14q0 7 3 14l146 363q8 23 33 23q26 0 34 -23l145 -364q3 -6 3 -13q0 -6 -3 -14z" />
<glyph unicode="r" horiz-adv-x="424" d="M303 579l-185 119v-235zM389 547l-254 -159l264 -329q8 -11 8 -23q0 -15 -11 -25.5t-25 -10.5q-18 0 -29 14l-224 281v-259q0 -15 -11 -25.5t-26 -10.5q-14 0 -25 10.5t-11 25.5v729q0 14 11 24.5t25 10.5q11 0 20 -6l289 -185q17 -12 17 -30q0 -21 -18 -32z" />
<glyph unicode="s" horiz-adv-x="423" d="M407 398q0 -12 -8 -23l-289 -361q-11 -14 -29 -14q-14 0 -25 10.5t-11 25.5q0 12 8 23l243 303h-212q-16 0 -27.5 10t-11.5 26q0 12 8 23l290 365q9 14 28 14q15 0 25.5 -10.5t10.5 -25.5q0 -12 -8 -23l-243 -307h215q15 0 25.5 -10.5t10.5 -25.5z" />
<glyph unicode="t" horiz-adv-x="436" d="M227 800q18 0 29 -14l145 -181q8 -11 8 -23q0 -15 -10.5 -26t-25.5 -11q-17 0 -29 14l-80 101v-624q0 -15 -10.5 -25.5t-25.5 -10.5t-26 10.5t-11 25.5v624l-81 -101q-12 -14 -28 -14q-15 0 -26 11t-11 26q0 12 8 23l146 181q11 14 28 14z" />
<glyph unicode="u" horiz-adv-x="441" d="M409 764v-546q0 -20 -18 -31l-290 -181q-6 -4 -19 -6q-15 -1 -26 10.5t-11 25.5v728q0 15 11 25.5t26 10.5t25.5 -10.5t10.5 -25.5v-662l218 136v526q0 15 11 25.5t26 10.5t25.5 -10.5t10.5 -25.5z" />
<glyph unicode="v" horiz-adv-x="439" d="M409 764q0 -5 -1 -8l-145 -726q-3 -13 -13 -21.5t-23 -8.5t-23 8.5t-13 21.5l-145 726q0 2 -0.5 4t-0.5 4q0 15 11 25.5t26 10.5q13 0 23 -8t12 -21l110 -549l110 549q2 13 12 21t24 8q15 0 25.5 -10.5t10.5 -25.5z" />
<glyph unicode="w" horiz-adv-x="448" d="M336 205l-109 137l-109 -137v-65l81 101q12 14 28 14q17 0 29 -14l80 -101v65zM409 764v-728q0 -15 -10.5 -25t-25.5 -11q-18 0 -29 14l-117 146l-117 -146q-11 -14 -28 -14q-15 1 -26 11t-11 25v728q0 14 11 25t26 11q14 0 25 -11t11 -25v-442l81 101q11 13 28 13 q18 0 29 -13l80 -101v442q0 14 11 25t26 11q14 0 25 -11t11 -25z" />
<glyph unicode="x" horiz-adv-x="432" d="M266 400q3 -8 20.5 -50.5t37 -89.5t39.5 -97t33 -85.5t13 -41.5q0 -15 -10.5 -25.5t-25.5 -10.5q-26 0 -34 23l-112 279l-112 -279q-8 -23 -33 -23q-15 0 -26 10.5t-11 25.5q0 6 13 41.5t33 85.5t39.5 97t37 89.5t20.5 50.5q-3 8 -20.5 50.5t-37 89.5t-39.5 97t-33 85.5 t-13 41.5q0 15 11 25.5t26 10.5q25 0 33 -23l112 -279l112 279q8 23 34 23q15 0 25.5 -10.5t10.5 -25.5q0 -6 -13 -41.5t-33 -85.5t-39.5 -97t-37 -89.5t-20.5 -50.5z" />
<glyph unicode="y" horiz-adv-x="426" d="M386 797q14 -5 20 -19t0 -28l-142 -357v-357q0 -15 -11 -25.5t-26 -10.5t-25.5 10.5t-10.5 25.5v357l-143 357q-6 14 0 28t20 19q14 6 28 0t19 -20l76 -188v175q0 15 10.5 25.5t25.5 10.5t26 -10.5t11 -25.5v-175l75 188q5 14 19 20t28 0z" />
<glyph unicode="z" horiz-adv-x="424" d="M409 764q0 -8 -3 -15l-271 -676h238q15 0 25.5 -11t10.5 -26t-10.5 -25.5t-25.5 -10.5h-291q-37 4 -37 36q0 8 3 15l271 676h-237q-15 0 -26 11t-11 26t11 25.5t26 10.5q32 0 91 0.5t108 0.5t92 -1q15 -1 25.5 -11t10.5 -25z" />
<glyph unicode="{" />
<glyph unicode="|" />
<glyph unicode="}" />
<glyph unicode="~" />
<glyph unicode="&#xa0;" />
<glyph unicode="&#xa1;" />
<glyph unicode="&#xa2;" />
<glyph unicode="&#xa3;" />
<glyph unicode="&#xa4;" />
<glyph unicode="&#xa5;" />
<glyph unicode="&#xa6;" />
<glyph unicode="&#xa7;" />
<glyph unicode="&#xa8;" />
<glyph unicode="&#xa9;" />
<glyph unicode="&#xaa;" />
<glyph unicode="&#xab;" />
<glyph unicode="&#xac;" />
<glyph unicode="&#xad;" />
<glyph unicode="&#xae;" />
<glyph unicode="&#xaf;" />
<glyph unicode="&#xb0;" />
<glyph unicode="&#xb1;" />
<glyph unicode="&#xb2;" />
<glyph unicode="&#xb3;" />
<glyph unicode="&#xb4;" />
<glyph unicode="&#xb5;" />
<glyph unicode="&#xb6;" />
<glyph unicode="&#xb7;" />
<glyph unicode="&#xb8;" />
<glyph unicode="&#xb9;" />
<glyph unicode="&#xba;" />
<glyph unicode="&#xbb;" />
<glyph unicode="&#xbc;" />
<glyph unicode="&#xbd;" />
<glyph unicode="&#xbe;" />
<glyph unicode="&#xbf;" />
<glyph unicode="&#xc0;" />
<glyph unicode="&#xc1;" />
<glyph unicode="&#xc2;" />
<glyph unicode="&#xc3;" />
<glyph unicode="&#xc4;" />
<glyph unicode="&#xc5;" />
<glyph unicode="&#xc6;" />
<glyph unicode="&#xc7;" />
<glyph unicode="&#xc8;" />
<glyph unicode="&#xc9;" />
<glyph unicode="&#xca;" />
<glyph unicode="&#xcb;" />
<glyph unicode="&#xcc;" />
<glyph unicode="&#xcd;" />
<glyph unicode="&#xce;" />
<glyph unicode="&#xcf;" />
<glyph unicode="&#xd0;" />
<glyph unicode="&#xd1;" />
<glyph unicode="&#xd2;" />
<glyph unicode="&#xd3;" />
<glyph unicode="&#xd4;" />
<glyph unicode="&#xd5;" />
<glyph unicode="&#xd6;" />
<glyph unicode="&#xd7;" />
<glyph unicode="&#xd9;" />
<glyph unicode="&#xda;" />
<glyph unicode="&#xdb;" />
<glyph unicode="&#xdc;" />
<glyph unicode="&#xdd;" />
<glyph unicode="&#xde;" />
<glyph unicode="&#xdf;" />
<glyph unicode="&#xe0;" />
<glyph unicode="&#xe1;" />
<glyph unicode="&#xe2;" />
<glyph unicode="&#xe3;" />
<glyph unicode="&#xe4;" />
<glyph unicode="&#xe5;" />
<glyph unicode="&#xe9;" />
<glyph unicode="&#xeb;" />
<glyph unicode="&#xec;" />
<glyph unicode="&#xed;" />
<glyph unicode="&#xee;" />
<glyph unicode="&#xef;" />
<glyph unicode="&#xf0;" />
<glyph unicode="&#xf1;" />
<glyph unicode="&#xf2;" />
<glyph unicode="&#xf3;" />
<glyph unicode="&#xf4;" />
<glyph unicode="&#xf5;" />
<glyph unicode="&#xf6;" />
<glyph unicode="&#xf7;" />
<glyph unicode="&#xf8;" />
<glyph unicode="&#xf9;" />
<glyph unicode="&#xfa;" />
<glyph unicode="&#xfb;" />
<glyph unicode="&#xfc;" />
<glyph unicode="&#xfd;" />
<glyph unicode="&#xfe;" />
<glyph unicode="&#xff;" />
<glyph unicode="&#x178;" />
<glyph unicode="&#x2018;" />
<glyph unicode="&#x2019;" />
<glyph unicode="&#x201c;" />
<glyph unicode="&#x201d;" />
<glyph unicode="&#x25fc;" horiz-adv-x="800" d="M0 800h800v-800h-800v800z" />
</font>
</defs>
</svg>
